<svg xmlns="http://www.w3.org/2000/svg" width="817.334" height="817.334" viewBox="0 0 216.253 216.253" xmlns:v="https://vecta.io/nano"><style><![CDATA[.B{image-rendering:optimizeQuality}.C{shape-rendering:geometricPrecision}.D{fill-rule:evenodd}.E{text-rendering:geometricPrecision}]]></style><g class="E B C"><path d="M112.099 8.142l-3.677 4.385-4.731-4.367a100.65 100.65 0 0 0-10.069.947c6.069 8.792 4.407 14.406 4.407 14.406s-2.969-4.454-10.69-6.533c-3.247-.874-5.391-2.956-6.785-5.075a99.38 99.38 0 0 0-5.958 1.914c.619 2.232 2.467 5.22 7.398 8.209 5.954 3.608 9.054 7.984 10.44 12.595-4.839.093-8.289 2.234-10.205 5.171-4.399-1.959-8.171-4.942-9.143-10.935-.739-4.555-1.121-9.62-1.314-13.99-1.702.664-3.382 1.372-5.038 2.125l.116 7.41-4.634-5.214c-1.668.863-3.306 1.774-4.919 2.726l8.662 15.553s-13.344-.733-21.388-6.642c-1.28 1.054-2.534 2.138-3.759 3.252 2.427 3.491 5.827 6.296 10.597 7.25 16.332 3.266 16.035 15.144 16.035 15.144s-12.896-.128-19.302-3.563c-6.683-3.584-10.634-8.369-12.875-13.375-1.495 1.588-2.943 3.221-4.333 4.904 7.174 17.224 11.858 19.029 33.242 23.021 3.33.622 6.286 1.577 8.909 2.749-.438 2.47-.267 4.975.6 7.223 2.261 5.864 9.058 10.411 16.687 9.177 1.231 2.391 1.716 4.012 1.716 4.012l-13.66-4.454C70.413 75.478 65.364 73.4 48.439 70.431c-12.594-2.209-19.268-14.281-21.86-20.317a100.79 100.79 0 0 0-4.243 6.473c3.741 9.32 13.836 17.727 24.916 20.969 9.512 2.784 16.258 4.937 16.332 8.612-3.012.633-11.878 1.782-13.956 1.782 0 0-21.297-17.211-25.333-18.967-2.638-1.148-5.167-1.739-7.413-2.007a99.47 99.47 0 0 0-2.266 5.461c18.977 3.809 26.994 19.372 26.994 19.372s-10.393 1.485-16.035-8.908c-2.727-5.023-7.534-7.272-11.774-8.254-.561 1.581-1.083 3.18-1.566 4.797 8.441 2.13 12.205 15.54 15.463 16.403-5.174-.164-14.271-5.855-17.9-9.579a99.62 99.62 0 0 0-1.274 6.399c6.142 5.146 8.852 9.889 26.052 12.974 13.351 2.395 25.718 1.521 41.299-3.427 7.187-.027 13.96 3.145 15.82 8.32h1.349l15.083 27.107 15.084-27.107h1.349c.249-4.548 5.825-8.308 9.32-8.585 11.717-.247 15.168 5.17 34.43 4.956 25.688 0 35.329-10.312 39.395-14.33-.457-2.539-2.104-7.329-2.749-9.797-6.446 7.173-17.705 14.599-34.769 9.256 0 0 19.902-9.098 30.933-20.935a98.35 98.35 0 0 0-2.221-5.137c-7.637 6.7-14.6 13.792-34.652 17.46 1.094-3.827 5.712-21.747 32.388-22.019-.926-1.751-1.897-3.475-2.922-5.162-3.626.214-7.573.484-9.867.753-5.048.594-13.957 2.673-23.162 15.441S144.055 83.72 139.898 83.72l-2.233.02c2.24-1.662 3.964-3.87 4.903-6.306 1.081-2.803 1.084-6.004.166-9.038 2.232-.846 4.738-1.591 7.558-2.196 24.943-5.345 26.724-13.362 26.724-13.362s2.517-3.623 8.194-8.526a100.35 100.35 0 0 0-3.807-4.327c-2.09 1.28-4.367 3.033-6.763 5.43-10.69 10.69-13.659 12.472-26.131 12.769 0 0 4.157-17.52 17.816-18.41 4.579-.299 8.321-1.798 11.276-3.661a100.37 100.37 0 0 0-4.403-4.004c-3.652 1.45-7.432 2.47-11.03 2.617-14.55.594-10.69 6.235-14.847 10.986-2.936 3.355-5.433 7.158-12.499 12.97-2.286-1.229-4.979-1.964-8.023-1.972 9.008-2.586 10.991-11.456 7.076-17.138 3.832-3.36 9.04-5.882 16.119-6.627 6.041-.636 10.947-3.345 14.935-7.204-2.095-1.447-4.246-2.817-6.452-4.104-3.041 2.805-7.325 5.668-12.343 5.963-8.582.505-12.661-.486-20.074 7.228a16.1 16.1 0 0 0-3.166-.195c1.746-5.911 6.107-15.562 16.694-21.522-3.15-1.042-6.369-1.931-9.648-2.66-4.094 2.618-8.575 6.743-12.342 13.232a8.93 8.93 0 0 0-1.119-1.075c-.039-2.948.625-8.066 4.673-13.705-2.978-.387-5.997-.638-9.051-.758zm12.854 78.292c.42.093.838.167 1.253.226a11.06 11.06 0 0 0-1.454 1.217s.022-.538.201-1.443z" fill="#068249" class="D"/><g fill="none"><path d="M108.127 4.79c57.071 0 103.337 46.266 103.337 103.337s-46.265 103.337-103.337 103.337S4.79 165.198 4.79 108.127 51.056 4.79 108.127 4.79z" stroke="#126eb1" stroke-width="3.4"/><path d="M108.127 1.75c58.75 0 106.376 47.627 106.376 106.376s-47.626 106.376-106.376 106.376S1.75 166.877 1.75 108.127 49.377 1.75 108.127 1.75z" stroke="#d46402" stroke-width="3.5"/></g></g><path d="M108.126 12.873c-43.213 0-78.245 36.098-78.245 80.628a84.02 84.02 0 0 0 .423 8.436c37.791 3.663 30.765-3.341 52.415-3.341 6.573 0 10.603.669 13.028 9.29 4.026-1.478 6.519-5.195 6.519-8.772V79.55c-11.36 12.616-25.16 6.755-28.581-2.116-3.282-8.511 3.313-20.693 15.77-20.726-14.894-4.275-10.591-25.737 7.846-21.551-3.641-12.222 5.467-15.195 10.825-15.195s14.466 2.973 10.825 15.195c18.437-4.186 22.74 17.275 7.846 21.551 12.457.032 19.052 12.215 15.77 20.726-3.421 8.871-17.221 14.732-28.581 2.116v19.565c0 3.577 2.494 7.294 6.519 8.772 2.424-8.621 6.454-9.29 13.027-9.29 21.65 0 14.624 7.004 52.415 3.341a84.02 84.02 0 0 0 .423-8.436c0-44.53-35.031-80.628-78.245-80.628z" opacity=".997" fill="#d46402"  class="D"/><g fill="none" stroke="#000"><path d="M185.948 101.938a84.02 84.02 0 0 0 .423-8.436c0-44.53-35.031-80.628-78.245-80.628S29.882 48.972 29.882 93.502a84.02 84.02 0 0 0 .423 8.436" opacity=".997" stroke-width="1.345" /><path d="M90.682 108.549h1.257c6.205 0 10.329-4.834 10.329-9.435V79.55c-11.36 12.616-25.16 6.754-28.581-2.116-3.282-8.511 3.313-20.693 15.77-20.726-14.894-4.275-10.591-25.737 7.846-21.551-3.641-12.222 5.468-15.195 10.825-15.195s14.466 2.973 10.825 15.195c18.437-4.186 22.74 17.276 7.846 21.551 12.457.032 19.052 12.215 15.77 20.726-3.421 8.871-17.22 14.732-28.581 2.116v19.565c0 4.6 4.123 9.435 10.329 9.435h.691" stroke-width="1.365"/></g><path d="M92.091 110.444c.21 3.084-2.635 8.836-7.001 10.801-2.047-.779-7.894-2.66-17.949-2.786-22.921-5.146-40.881 14.789-58.228 6.613.156.935.36 2.954.542 3.88 4.932 2.539 9.537 3.128 9.537 3.128l-7.929 2.185 1.161 4.024c4.649-.615 11.539-.868 17.41.359-3.268 3.713-10.307 6.114-14.317 8.006.883 2.013 1.232 3.15 2.24 5.092 11.581-3.947 30.808-4.854 43.11-1.798 7.944 1.973 22.894-1.939 24.63-3.738l.164-.236c-.022.073-.084.153-.164.236-1.316 1.866-11.337 15.029-32.306 15.304-12.214.296-27.037-4.644-34.85-8.449 1.535 2.872 3.402 5.95 5.201 8.645l6.986 1.887-5.31 1.064c1.148 1.599 2.84 3.658 4.079 5.184l5.977-.711-3.063 4.24c1.498 1.686 2.157 2.526 3.764 4.107 3.061-1.932 4.815-3.075 10.275-3.495 11.581-.891 22.249-.175 22.249-.175.008-.069 4.179 6.004-14.379 18.312 2.396 1.525 4.161 2.737 6.69 4.058 2.846-2.196 10.285-8.437 12.083-7.732 2.565 1.682 1.983 8.996.237 13.377 2.656.999 3.131 1.145 5.89 1.919.074-3.228 1.982-8.54 4.015-11.994 0 0 4.575 1.647 8.869 14.98 2.129.33 4.844.868 7.016 1.061-.617-4.57-3.147-9.652-7.367-13.696-7.126-6.83-11.3-18.54 6.517-22.104 1.188 6.533.656 16.414 10.353 24.757-1.484-6.533-.49-14.648 4.855-21.477 8.406 10.087 23.845 16.322 28.583 26.993 2.071-.714 3.199-1 5.205-1.843l-2.791-9.221s3.4 3.267 7.971 6.867c1.467-.732 2.913-1.428 4.338-2.229-6.795-5.247-16.135-13.358-25.984-20.661-20.242-12.839-13.012-29.442-13.012-29.442s3.666 2.414 8.433 6.258c4.81 3.879 11.766 17.845 15.626 21.705 2.681 2.681 14.254 11.839 21.505 18.214 1.645-1.055 1.778-1.18 3.354-2.328-.84-1.948-2.649-3.533-2.156-5.982 1.784.796 4.218 1.429 7.5 1.851a100.44 100.44 0 0 0 6.32-5.668c-9.583-.238-24.383-3.587-30.052-15.302 0 0 11.43-.431 35.381 9.694a100.45 100.45 0 0 0 7.419-9.535l-2.413-6.096 6.819-.934c1.237-2.17 2.044-3.199 3.119-5.467-5.579-.362-13.818-1.839-21.828-6.929-8.393-5.333-20.366-8.348-23.75-13.695 0 0 8.908-3.659 30.295 6.833 5.353 2.531 15.645 4.613 18.897 4.895.673-1.792 1.598-3.011 2.168-4.851-5.923.533-16.284-1.926-19.982-8.659 0 0 13.109 2.697 22.241-.448.413-1.89.378-3.502.683-5.431-2.705.726-6.126 1.226-10.347 1.132-13.363-.297-15.732-7.275-30.877-7.424s-23.027 5.194-31.044 5.491c-6.329.049-10.332-5.695-10.332-12.525zm-34.496 16.179c5.31.061 12.724 2.481 22.786 8.094-18.889 8.318-35.476.199-33.517-.424 1.399-4.777 4.714-7.739 10.732-7.67zm24.296 9.848c.128.001.242.012.34.035 3.381.566 3.462 2.726 3.476 4.717-2.179-1.313-6.334-.931-9.683-1.241-1.07-1.229 3.947-3.524 5.867-3.51zm-38.189 2.153c2.225-.048 5.65 1.731 6.654 3.909-.005-.054-7.328-.189-10.169.919-1.013-2.99 1.591-4.498 2.868-4.753a3.24 3.24 0 0 1 .648-.075zm81.438 1.117c21.855.634 28.54 18.301 29.403 18.119-8.851 0-26.084-7.429-29.403-18.119zm-24.738 8.606c1.991 11.063-7.706 24.262-16.02 23.371 0 0 .191-17.922 16.02-23.371zm56.549.689c9.225-.145 22.642 12.24 24.508 21.3-24.053-6.533-25.837-21.186-25.837-21.186a9.26 9.26 0 0 1 1.329-.114z" fill="#8d8157" class="B C D E"/><path d="M108.127 107.755l-7.791 3.06c5.103 7.971-1.889 12.887-6.275 15.106-6.209 2.557-23.795-7.944-36.141-5.556-8.009.632-11.684 5.981-17.144 10.411-4.12 2.997-10.114 2.573-16.003.685 4.821 1.808 12.839 3.254 16.424.017 5.92-5.345 11.101-9.258 18.688-9.427 17.614.916 21.514 8.164 39.887 8.146-10.487 17.722-21.576 38.162-67.556 35.955 22.687 3.694 40.843-.885 54.916-12.921-6.791 13.053-14.603 26.065-27.94 38.856 10.943-10.438 17.382-11.659 31.311-41.244l13.483-19.944c2.259 9.33 2.46 22.5 2.948 35.847 1.144-11.612 1.798-23.876 3.972-34.114 6.82 6.668 13.482 13.706 19.905 21.3 4.256 8.355 10.926 16.174 21.91 23.034-7.32-5.92-14.1-12.651-18.82-22.472 10.082 6.272 19.172 7.19 28.35 8.577-14.486-2.54-22.826-6.957-30.688-11.521-5.383-7.197-10.941-14.218-16.982-20.756 10.662.964 21.205 3.404 31.68 6.705 2.697 1.309 7.135 2.684 9.835 4.242 8.701 5.021 15.669 10.56 24.294 10.365-3.301-.993-7.109-1.873-9.315-3.109-7.281-4.464-13.182-9.52-22.989-12.902-7.533-2.886-15.22-4.792-23.034-5.899 13.702-.83 19.788-6.084 33.129-5.534 7.63.314 11.009 2.985 14.852 6.283 2.971 2.549 13.938 9.449 22.784 7.993-12.633-.51-20.668-7.062-22.912-9.883-3.795-4.771-9.853-5.979-14.33-6.056-11.173-.192-27.715 4.621-35.32 3.433-4.152-1.903-12.888-6.949-7.339-15.617z" fill="#126eb1"/><path d="M108.127 27.808c-1.508 2.575-5.015 3.911-8.452 2.78 1.477 3.085 5.506 3.523 7.448 3.575.05 12.631-14.546 9.834-18.075 7.746 1.731 3.731 2.843 7.778 15.294 6.058 2.483 19.026-13.385 22.802-17.578 24.928h17.777v26.219c.034 4-2.126 7.07-4.875 9.034-2.433 1.738-5.305 2.577-7.579 2.39-.126-.01-.271.013-.393-.004-3.664 13.818-22.721 1.979-36.118 3.17-16.627 1.04-27.986 12.886-47.699 2.293l1.037 9.074c3.402 1.693 7.384 2.173 10.931 2.454 19.336.732 29.896-9.392 47.297-9.067 6.047.198 11.933.586 17.701 2.655.253.091.209.084.379.152 6.959-1.05 12.659-6.676 17.63-10.036 1.119 4.689 6.023 11.173-10.528 16.685 2.561-.523 3.555-.142 12.513-4.171 3.5 3.534 2.192 14.883 3.288 22.324 1.096-7.441-.212-18.79 3.288-22.324 8.958 4.029 9.953 3.648 12.513 4.171-16.55-5.512-11.646-11.995-10.528-16.685 9.388 6.789 14.925 11.842 21.294 11.831 14.275 0 18.382-5.615 31.044-5.491 12.286.12 15.757 4.736 24.213 6.632 1.968.441 4.141.736 6.663.792 4.221.094 7.642-.406 10.347-1.132l1.465-8.693c-16.472 4.765-21.97 1.151-28.77-.859-11.26-3.778-21.599-1.927-29.965 1.925-7.812 2.178-18.936 3.552-25.134-5.7l-.393.004a13.14 13.14 0 0 1-7.579-2.39c-2.749-1.963-4.909-5.033-4.875-9.034V72.896h17.777c-4.193-2.126-20.061-5.902-17.578-24.928 12.452 1.72 13.563-2.327 15.294-6.058-3.529 2.088-18.124 4.884-18.075-7.746 1.942-.052 5.971-.49 7.448-3.575-3.437 1.131-6.944-.206-8.452-2.781z"/></svg>